# xmcd
#
# Track frame offsets:
#	150
#	15193
#	35369
#	63541
#	84056
#	104105
#	131669
#	152543
#	178109
#	200999
#	231972
#	250310
# Disc length: 3623 seconds
# Revision: 1
# Processed by: cddbd v1.5.2PL0 Copyright (c) Steve Scherf et al.
#
# Submitted via: libkcddb 0.31
#
DISCID=9d0e250c
DTITLE=Michael Burks - Iron Man
DYEAR=2008
DGENRE=Blues
TTITLE0=Love Disease
TTITLE1=Strange Feeling
TTITLE2=Empty Promises
TTITLE3=Salty Tears
TTITLE4=No More Crying
TTITLE5=Ashes In My Ashtray
TTITLE6=Don't Waste My Time
TTITLE7=Quiet Little Town
TTITLE8=Hard Come, Easy Go
TTITLE9=Icepick Through My Heart
TTITLE10=Fire And Water
TTITLE11=Changed Man
EXTD=
EXTT0=
EXTT1=
EXTT2=
EXTT3=
EXTT4=
EXTT5=
EXTT6=
EXTT7=
EXTT8=
EXTT9=
EXTT10=
EXTT11=
PLAYORDER=
